<svg width="737" height="266" viewBox="0 0 737 266" fill="none" xmlns="http://www.w3.org/2000/svg">
<g clip-path="url(#clip0_30_3497)">
<path d="M56.7992 253.4H46.9992V131.1H51.2992C67.9992 131.1 76.7992 148.8 76.7992 175.8H79.5992V81.5996H76.7992C76.7992 104.6 68.9992 128.1 51.2992 128.1H46.9992V10.3996H59.5992C79.2992 10.3996 100.999 26.2996 100.999 68.7996H103.799V7.09961H0.699219V10.3996H17.0992V253.4H0.699219V256.7H104.299V191.5H101.499C101.499 237.5 77.9992 253.4 56.7992 253.4ZM269.499 253.4H257.399V10.3996H276.099V7.09961H208.899V10.3996H227.599V253.2H208.899V256.5H315.999V191H312.699C311.999 234.2 293.999 253.4 269.499 253.4ZM491.099 253.4H478.999V10.3996H497.699V7.09961H430.499V10.3996H449.199V253.2H430.499V256.5H537.599V191H534.299C533.499 234.2 515.599 253.4 491.099 253.4ZM734.599 191.5V191.2C734.599 237.2 711.099 253.1 689.899 253.1H679.999V131.1H684.299C700.999 131.1 709.799 148.8 709.799 175.8H712.599V81.5996H709.799C709.799 104.6 701.999 128.1 684.299 128.1H679.999V10.3996H692.599C712.599 10.3996 733.999 26.2996 733.999 68.7996H736.799V7.09961H633.799V10.3996H650.199V253.4H633.799V256.7H737.399V191.5H734.599Z" fill="black"/>
</g>
<defs>
<clipPath id="clip0_30_3497">
<rect width="737" height="266" fill="white"/>
</clipPath>
</defs>
</svg>
